<svg xmlns="http://www.w3.org/2000/svg" xmlns:xlink="http://www.w3.org/1999/xlink" width="40" zoomAndPan="magnify" viewBox="0 0 30 31.5" height="42" preserveAspectRatio="xMidYMid meet" version="1.0"><defs><clipPath id="3466fd43e4"><path d="M 0.234375 8 L 29.765625 8 L 29.765625 31 L 0.234375 31 Z M 0.234375 8 " clip-rule="nonzero"/></clipPath></defs><g clip-path="url(#3466fd43e4)"><path fill="#009b3a" d="M 29.757812 29.945312 C 19.917969 26.636719 10.082031 33.257812 0.242188 29.945312 C 0.242188 23.046875 0.242188 16.152344 0.242188 9.253906 C 10.082031 12.5625 19.917969 5.941406 29.757812 9.253906 C 29.757812 16.148438 29.757812 23.046875 29.757812 29.945312 Z M 29.757812 29.945312 " fill-opacity="1" fill-rule="nonzero"/></g><path fill="#fedf00" d="M 14.984375 27.359375 C 10.949219 25.394531 6.914062 23.433594 2.875 19.601562 C 6.945312 18.257812 11.011719 15.019531 15.082031 11.796875 C 19.085938 13.777344 23.089844 15.769531 27.097656 19.601562 C 23.058594 20.945312 19.023438 24.152344 14.984375 27.359375 Z M 14.984375 27.359375 " fill-opacity="1" fill-rule="nonzero"/><path fill="#002776" d="M 20.121094 19.601562 C 20.121094 19.84375 20.101562 20.082031 20.070312 20.3125 C 20.03125 20.613281 19.960938 20.90625 19.871094 21.1875 C 19.203125 23.253906 17.269531 24.746094 14.984375 24.746094 C 12.152344 24.746094 9.851562 22.441406 9.851562 19.601562 C 9.851562 19.15625 9.910156 18.726562 10.015625 18.3125 C 10.089844 18.027344 10.1875 17.75 10.304688 17.484375 C 11.113281 15.703125 12.90625 14.460938 14.984375 14.460938 C 17.820312 14.460938 20.121094 16.761719 20.121094 19.601562 Z M 20.121094 19.601562 " fill-opacity="1" fill-rule="nonzero"/><path fill="#ffffff" d="M 20.070312 20.3125 C 20.03125 20.613281 19.960938 20.90625 19.871094 21.1875 C 17.710938 19.070312 15.117188 18.40625 13.316406 18.222656 C 11.707031 18.0625 10.441406 18.238281 10.015625 18.3125 C 10.089844 18.027344 10.1875 17.75 10.304688 17.484375 C 10.953125 17.402344 12.058594 17.316406 13.394531 17.453125 C 15.226562 17.636719 17.828125 18.289062 20.070312 20.3125 Z M 20.070312 20.3125 " fill-opacity="1" fill-rule="nonzero"/><path fill="#00a651" d="M 10.679688 17.839844 C 10.667969 17.6875 10.75 17.574219 10.910156 17.5625 C 11.070312 17.550781 11.167969 17.652344 11.179688 17.804688 C 11.191406 17.960938 11.105469 18.070312 10.945312 18.082031 C 10.789062 18.09375 10.691406 17.992188 10.679688 17.839844 Z M 11.082031 17.8125 C 11.074219 17.695312 11.019531 17.636719 10.917969 17.640625 C 10.816406 17.648438 10.769531 17.71875 10.777344 17.832031 C 10.785156 17.949219 10.839844 18.007812 10.941406 18.003906 C 11.042969 17.996094 11.089844 17.929688 11.082031 17.8125 Z M 11.082031 17.8125 " fill-opacity="1" fill-rule="nonzero"/><path fill="#00a651" d="M 12.015625 17.804688 C 12.070312 17.816406 12.101562 17.855469 12.101562 17.914062 L 12.101562 17.992188 C 12.101562 18.011719 12.101562 18.03125 12.105469 18.042969 L 12.015625 18.042969 C 12.007812 18.027344 12.003906 18.011719 12.003906 17.992188 L 12.003906 17.914062 C 12.003906 17.851562 11.964844 17.839844 11.917969 17.839844 L 11.800781 17.839844 L 11.800781 18.042969 L 11.707031 18.042969 L 11.707031 17.539062 L 11.941406 17.539062 C 12.046875 17.539062 12.109375 17.59375 12.109375 17.679688 C 12.105469 17.746094 12.074219 17.789062 12.015625 17.804688 Z M 11.929688 17.609375 L 11.800781 17.609375 L 11.800781 17.765625 L 11.929688 17.765625 C 11.984375 17.765625 12.011719 17.734375 12.011719 17.6875 C 12.011719 17.640625 11.984375 17.609375 11.929688 17.609375 Z M 11.929688 17.609375 " fill-opacity="1" fill-rule="nonzero"/><path fill="#00a651" d="M 12.308594 18.046875 L 12.332031 17.542969 L 12.699219 17.558594 L 12.695312 17.636719 L 12.421875 17.625 L 12.417969 17.757812 L 12.664062 17.769531 L 12.664062 17.84375 L 12.414062 17.832031 L 12.40625 17.972656 L 12.679688 17.984375 L 12.675781 18.066406 Z M 12.308594 18.046875 " fill-opacity="1" fill-rule="nonzero"/><path fill="#00a651" d="M 13.335938 18.117188 L 13.375 17.703125 L 13.191406 18.105469 L 13.109375 18.097656 L 13 17.667969 L 12.960938 18.082031 L 12.871094 18.074219 L 12.917969 17.574219 L 13.066406 17.585938 L 13.160156 17.957031 L 13.320312 17.609375 L 13.472656 17.625 L 13.425781 18.128906 Z M 13.335938 18.117188 " fill-opacity="1" fill-rule="nonzero"/><path fill="#00a651" d="M 13.949219 18.199219 L 14.03125 17.703125 L 14.394531 17.765625 L 14.382812 17.839844 L 14.113281 17.796875 L 14.09375 17.925781 L 14.339844 17.96875 L 14.324219 18.039062 L 14.082031 18 L 14.058594 18.136719 L 14.324219 18.183594 L 14.3125 18.261719 Z M 13.949219 18.199219 " fill-opacity="1" fill-rule="nonzero"/><path fill="#00a651" d="M 15.070312 18.242188 L 14.949219 18.210938 L 14.90625 18.390625 L 14.8125 18.367188 L 14.933594 17.875 L 15.148438 17.929688 C 15.253906 17.953125 15.308594 18.027344 15.285156 18.128906 C 15.257812 18.230469 15.179688 18.265625 15.070312 18.242188 Z M 15.117188 17.996094 L 15.007812 17.96875 L 14.96875 18.140625 L 15.074219 18.167969 C 15.136719 18.183594 15.175781 18.164062 15.191406 18.105469 C 15.207031 18.046875 15.179688 18.011719 15.117188 17.996094 Z M 15.117188 17.996094 " fill-opacity="1" fill-rule="nonzero"/><path fill="#00a651" d="M 15.753906 18.375 C 15.804688 18.402344 15.820312 18.449219 15.804688 18.5 L 15.78125 18.578125 C 15.777344 18.597656 15.773438 18.617188 15.773438 18.628906 L 15.6875 18.601562 C 15.683594 18.585938 15.683594 18.570312 15.6875 18.550781 L 15.710938 18.476562 C 15.730469 18.417969 15.699219 18.394531 15.648438 18.378906 L 15.539062 18.34375 L 15.480469 18.539062 L 15.390625 18.511719 L 15.535156 18.027344 L 15.757812 18.097656 C 15.863281 18.128906 15.902344 18.199219 15.878906 18.28125 C 15.859375 18.34375 15.816406 18.375 15.753906 18.375 Z M 15.726562 18.164062 L 15.605469 18.125 L 15.5625 18.277344 L 15.683594 18.3125 C 15.738281 18.328125 15.769531 18.304688 15.785156 18.261719 C 15.796875 18.214844 15.78125 18.179688 15.726562 18.164062 Z M 15.726562 18.164062 " fill-opacity="1" fill-rule="nonzero"/><path fill="#00a651" d="M 16.03125 18.445312 C 16.085938 18.300781 16.203125 18.234375 16.355469 18.289062 C 16.503906 18.34375 16.554688 18.472656 16.503906 18.617188 C 16.449219 18.761719 16.328125 18.832031 16.179688 18.773438 C 16.027344 18.722656 15.980469 18.589844 16.03125 18.445312 Z M 16.410156 18.585938 C 16.453125 18.476562 16.425781 18.394531 16.328125 18.363281 C 16.234375 18.328125 16.160156 18.371094 16.121094 18.480469 C 16.082031 18.589844 16.109375 18.667969 16.207031 18.703125 C 16.300781 18.738281 16.371094 18.695312 16.410156 18.585938 Z M 16.410156 18.585938 " fill-opacity="1" fill-rule="nonzero"/><path fill="#00a651" d="M 16.675781 18.683594 C 16.738281 18.542969 16.859375 18.484375 17.007812 18.546875 C 17.144531 18.605469 17.183594 18.714844 17.144531 18.796875 L 17.066406 18.765625 C 17.078125 18.710938 17.050781 18.652344 16.976562 18.617188 C 16.882812 18.578125 16.808594 18.617188 16.765625 18.722656 C 16.71875 18.832031 16.742188 18.910156 16.832031 18.949219 C 16.917969 18.988281 16.980469 18.957031 17.015625 18.878906 L 16.898438 18.832031 L 16.925781 18.769531 L 17.125 18.855469 L 17.019531 19.109375 L 16.953125 19.082031 L 16.980469 19 C 16.9375 19.046875 16.878906 19.054688 16.792969 19.019531 C 16.652344 18.957031 16.613281 18.828125 16.675781 18.683594 Z M 16.675781 18.683594 " fill-opacity="1" fill-rule="nonzero"/><path fill="#00a651" d="M 17.589844 19.125 C 17.632812 19.160156 17.640625 19.207031 17.617188 19.257812 L 17.582031 19.328125 C 17.570312 19.347656 17.566406 19.363281 17.5625 19.378906 L 17.480469 19.335938 C 17.484375 19.320312 17.484375 19.304688 17.496094 19.285156 L 17.527344 19.21875 C 17.554688 19.160156 17.53125 19.132812 17.484375 19.109375 L 17.382812 19.058594 L 17.292969 19.238281 L 17.207031 19.195312 L 17.429688 18.746094 L 17.640625 18.851562 C 17.738281 18.898438 17.765625 18.976562 17.726562 19.054688 C 17.695312 19.109375 17.648438 19.136719 17.589844 19.125 Z M 17.597656 18.910156 L 17.484375 18.851562 L 17.414062 18.992188 L 17.527344 19.050781 C 17.578125 19.074219 17.617188 19.058594 17.636719 19.015625 C 17.65625 18.976562 17.648438 18.9375 17.597656 18.910156 Z M 17.597656 18.910156 " fill-opacity="1" fill-rule="nonzero"/><path fill="#00a651" d="M 17.738281 19.472656 L 17.988281 19.035156 L 18.308594 19.21875 L 18.269531 19.285156 L 18.035156 19.148438 L 17.96875 19.265625 L 18.183594 19.386719 L 18.148438 19.453125 L 17.933594 19.328125 L 17.863281 19.453125 L 18.097656 19.585938 L 18.058594 19.65625 Z M 17.738281 19.472656 " fill-opacity="1" fill-rule="nonzero"/><path fill="#00a651" d="M 18.296875 19.609375 L 18.375 19.660156 C 18.34375 19.722656 18.355469 19.761719 18.421875 19.804688 C 18.484375 19.847656 18.53125 19.839844 18.554688 19.800781 C 18.574219 19.769531 18.570312 19.742188 18.511719 19.6875 L 18.464844 19.644531 C 18.382812 19.578125 18.367188 19.523438 18.414062 19.453125 C 18.460938 19.378906 18.550781 19.359375 18.660156 19.429688 C 18.769531 19.5 18.789062 19.589844 18.738281 19.671875 L 18.660156 19.621094 C 18.6875 19.570312 18.675781 19.527344 18.621094 19.488281 C 18.5625 19.453125 18.523438 19.460938 18.496094 19.5 C 18.476562 19.53125 18.484375 19.554688 18.535156 19.597656 L 18.582031 19.640625 C 18.660156 19.707031 18.6875 19.773438 18.640625 19.84375 C 18.589844 19.925781 18.496094 19.941406 18.378906 19.863281 C 18.261719 19.789062 18.238281 19.699219 18.296875 19.609375 Z M 18.296875 19.609375 " fill-opacity="1" fill-rule="nonzero"/><path fill="#00a651" d="M 18.796875 19.941406 L 18.871094 19.996094 C 18.839844 20.054688 18.84375 20.097656 18.90625 20.144531 C 18.96875 20.1875 19.015625 20.179688 19.042969 20.144531 C 19.0625 20.117188 19.0625 20.085938 19.007812 20.03125 L 18.960938 19.984375 C 18.882812 19.910156 18.871094 19.855469 18.921875 19.789062 C 18.972656 19.71875 19.0625 19.703125 19.167969 19.78125 C 19.273438 19.859375 19.289062 19.949219 19.230469 20.027344 L 19.15625 19.972656 C 19.1875 19.921875 19.179688 19.878906 19.125 19.835938 C 19.070312 19.796875 19.027344 19.804688 19 19.84375 C 18.980469 19.871094 18.984375 19.894531 19.03125 19.941406 L 19.078125 19.988281 C 19.152344 20.0625 19.175781 20.125 19.125 20.195312 C 19.070312 20.273438 18.976562 20.28125 18.863281 20.199219 C 18.75 20.117188 18.730469 20.027344 18.796875 19.941406 Z M 18.796875 19.941406 " fill-opacity="1" fill-rule="nonzero"/><path fill="#00a651" d="M 19.335938 20.230469 C 19.433594 20.109375 19.570312 20.085938 19.691406 20.1875 C 19.816406 20.292969 19.816406 20.429688 19.71875 20.546875 C 19.621094 20.667969 19.484375 20.691406 19.363281 20.589844 C 19.238281 20.484375 19.238281 20.347656 19.335938 20.230469 Z M 19.644531 20.488281 C 19.71875 20.398438 19.71875 20.3125 19.640625 20.25 C 19.5625 20.183594 19.484375 20.199219 19.410156 20.289062 C 19.335938 20.378906 19.332031 20.464844 19.410156 20.527344 C 19.488281 20.59375 19.570312 20.578125 19.644531 20.488281 Z M 19.644531 20.488281 " fill-opacity="1" fill-rule="nonzero"/><path fill="#ffffff" d="M 16.269531 22.074219 L 16.1875 22.273438 L 16.359375 22.425781 L 16.136719 22.394531 L 16.054688 22.59375 L 16 22.375 L 15.777344 22.339844 L 15.96875 22.238281 L 15.914062 22.023438 L 16.082031 22.175781 Z M 16.269531 22.074219 " fill-opacity="1" fill-rule="nonzero"/><path fill="#ffffff" d="M 16.734375 19.441406 L 16.605469 19.582031 L 16.703125 19.746094 L 16.53125 19.667969 L 16.402344 19.808594 L 16.421875 19.621094 L 16.25 19.542969 L 16.433594 19.503906 L 16.453125 19.316406 L 16.550781 19.480469 Z M 16.734375 19.441406 " fill-opacity="1" fill-rule="nonzero"/><path fill="#ffffff" d="M 17.933594 20.65625 L 17.664062 20.746094 L 17.664062 21.027344 L 17.5 20.800781 L 17.230469 20.886719 L 17.394531 20.65625 L 17.230469 20.429688 L 17.5 20.515625 L 17.664062 20.289062 L 17.664062 20.570312 Z M 17.933594 20.65625 " fill-opacity="1" fill-rule="nonzero"/><path fill="#ffffff" d="M 17 21.300781 L 16.746094 21.382812 L 16.746094 21.648438 L 16.585938 21.433594 L 16.332031 21.515625 L 16.492188 21.300781 L 16.332031 21.082031 L 16.585938 21.164062 L 16.746094 20.949219 L 16.746094 21.214844 Z M 17 21.300781 " fill-opacity="1" fill-rule="nonzero"/><path fill="#ffffff" d="M 17.457031 21.640625 L 17.402344 21.746094 L 17.484375 21.828125 L 17.371094 21.808594 L 17.316406 21.914062 L 17.300781 21.800781 L 17.183594 21.78125 L 17.289062 21.726562 L 17.269531 21.613281 L 17.351562 21.695312 Z M 17.457031 21.640625 " fill-opacity="1" fill-rule="nonzero"/><path fill="#ffffff" d="M 16.273438 20.433594 L 16.214844 20.339844 L 16.105469 20.367188 L 16.179688 20.28125 L 16.121094 20.1875 L 16.222656 20.230469 L 16.292969 20.144531 L 16.285156 20.253906 L 16.390625 20.296875 L 16.28125 20.324219 Z M 16.273438 20.433594 " fill-opacity="1" fill-rule="nonzero"/><path fill="#ffffff" d="M 19.085938 21.234375 L 18.933594 21.414062 L 19.058594 21.617188 L 18.839844 21.527344 L 18.691406 21.710938 L 18.707031 21.472656 L 18.488281 21.386719 L 18.714844 21.328125 L 18.730469 21.09375 L 18.855469 21.292969 Z M 19.085938 21.234375 " fill-opacity="1" fill-rule="nonzero"/><path fill="#ffffff" d="M 17.804688 22.632812 L 17.667969 22.609375 L 17.605469 22.734375 L 17.582031 22.597656 L 17.445312 22.578125 L 17.570312 22.515625 L 17.546875 22.378906 L 17.644531 22.476562 L 17.765625 22.410156 L 17.707031 22.535156 Z M 17.804688 22.632812 " fill-opacity="1" fill-rule="nonzero"/><path fill="#ffffff" d="M 17.445312 23.207031 L 17.414062 23.265625 L 17.460938 23.308594 L 17.398438 23.300781 L 17.367188 23.359375 L 17.355469 23.292969 L 17.292969 23.285156 L 17.351562 23.253906 L 17.339844 23.1875 L 17.386719 23.234375 Z M 17.445312 23.207031 " fill-opacity="1" fill-rule="nonzero"/><path fill="#ffffff" d="M 18.285156 22.519531 L 18.46875 22.667969 L 18.667969 22.542969 L 18.582031 22.761719 L 18.761719 22.910156 L 18.527344 22.898438 L 18.441406 23.117188 L 18.382812 22.890625 L 18.148438 22.875 L 18.347656 22.75 Z M 18.285156 22.519531 " fill-opacity="1" fill-rule="nonzero"/><path fill="#ffffff" d="M 14.71875 20.488281 L 15.011719 20.394531 L 15.011719 20.085938 L 15.195312 20.335938 L 15.488281 20.238281 L 15.304688 20.488281 L 15.488281 20.738281 L 15.195312 20.644531 L 15.011719 20.894531 L 15.011719 20.585938 Z M 14.71875 20.488281 " fill-opacity="1" fill-rule="nonzero"/><path fill="#ffffff" d="M 11.097656 19.839844 L 11.238281 19.714844 L 11.160156 19.546875 L 11.324219 19.636719 L 11.460938 19.511719 L 11.421875 19.695312 L 11.585938 19.789062 L 11.398438 19.808594 L 11.359375 19.992188 L 11.285156 19.820312 Z M 11.097656 19.839844 " fill-opacity="1" fill-rule="nonzero"/><path fill="#ffffff" d="M 13.777344 21.242188 L 13.625 21.375 L 13.703125 21.558594 L 13.53125 21.457031 L 13.378906 21.585938 L 13.425781 21.390625 L 13.253906 21.285156 L 13.453125 21.269531 L 13.5 21.074219 L 13.578125 21.261719 Z M 13.777344 21.242188 " fill-opacity="1" fill-rule="nonzero"/><path fill="#ffffff" d="M 14.441406 22.417969 L 14.4375 22.628906 L 14.640625 22.695312 L 14.4375 22.757812 L 14.4375 22.96875 L 14.316406 22.796875 L 14.117188 22.863281 L 14.238281 22.691406 L 14.117188 22.523438 L 14.316406 22.589844 Z M 14.441406 22.417969 " fill-opacity="1" fill-rule="nonzero"/><path fill="#ffffff" d="M 15.886719 23.265625 L 15.84375 23.328125 L 15.890625 23.390625 L 15.816406 23.367188 L 15.769531 23.433594 L 15.769531 23.355469 L 15.695312 23.332031 L 15.769531 23.308594 L 15.769531 23.230469 L 15.816406 23.292969 Z M 15.886719 23.265625 " fill-opacity="1" fill-rule="nonzero"/><path fill="#ffffff" d="M 14.59375 23.859375 L 14.476562 23.847656 L 14.429688 23.957031 L 14.40625 23.839844 L 14.289062 23.828125 L 14.386719 23.769531 L 14.363281 23.652344 L 14.449219 23.730469 L 14.550781 23.671875 L 14.507812 23.78125 Z M 14.59375 23.859375 " fill-opacity="1" fill-rule="nonzero"/><path fill="#ffffff" d="M 13.007812 23.078125 L 13.097656 23 L 13.050781 22.890625 L 13.152344 22.953125 L 13.238281 22.875 L 13.214844 22.988281 L 13.316406 23.050781 L 13.199219 23.0625 L 13.171875 23.175781 L 13.125 23.066406 Z M 13.007812 23.078125 " fill-opacity="1" fill-rule="nonzero"/><path fill="#ffffff" d="M 12.1875 22.050781 L 12.496094 22 L 12.539062 21.691406 L 12.683594 21.96875 L 12.992188 21.917969 L 12.773438 22.140625 L 12.917969 22.417969 L 12.640625 22.277344 L 12.417969 22.5 L 12.464844 22.191406 Z M 12.1875 22.050781 " fill-opacity="1" fill-rule="nonzero"/><path fill="#ffffff" d="M 11.417969 22.652344 L 11.503906 22.609375 L 11.488281 22.515625 L 11.554688 22.582031 L 11.636719 22.539062 L 11.59375 22.625 L 11.660156 22.691406 L 11.570312 22.675781 L 11.527344 22.761719 L 11.511719 22.667969 Z M 11.417969 22.652344 " fill-opacity="1" fill-rule="nonzero"/><path fill="#ffffff" d="M 16.0625 23.695312 L 15.945312 23.832031 L 16.039062 23.984375 L 15.871094 23.914062 L 15.753906 24.050781 L 15.769531 23.871094 L 15.605469 23.800781 L 15.78125 23.757812 L 15.796875 23.578125 L 15.890625 23.734375 Z M 16.0625 23.695312 " fill-opacity="1" fill-rule="nonzero"/><path fill="#ffffff" d="M 16.75 23.671875 C 16.757812 23.695312 16.757812 23.722656 16.757812 23.746094 C 16.78125 23.757812 16.804688 23.777344 16.816406 23.800781 C 16.792969 23.785156 16.769531 23.785156 16.75 23.785156 C 16.742188 23.808594 16.730469 23.828125 16.71875 23.847656 C 16.726562 23.835938 16.722656 23.816406 16.714844 23.800781 C 16.699219 23.8125 16.691406 23.824219 16.691406 23.839844 C 16.6875 23.816406 16.6875 23.792969 16.695312 23.773438 C 16.679688 23.757812 16.65625 23.75 16.628906 23.75 C 16.652344 23.734375 16.679688 23.726562 16.707031 23.730469 C 16.71875 23.710938 16.734375 23.6875 16.75 23.671875 Z M 16.75 23.671875 " fill-opacity="1" fill-rule="nonzero"/><path fill="#ffffff" d="M 15.144531 21.867188 L 15.253906 21.847656 L 15.269531 21.738281 L 15.316406 21.835938 L 15.425781 21.816406 L 15.347656 21.894531 L 15.398438 21.992188 L 15.300781 21.945312 L 15.226562 22.023438 L 15.242188 21.914062 Z M 15.144531 21.867188 " fill-opacity="1" fill-rule="nonzero"/><path fill="#ffffff" d="M 15.242188 16.777344 L 15.542969 16.90625 L 15.757812 16.660156 L 15.726562 16.988281 L 16.03125 17.117188 L 15.710938 17.191406 L 15.679688 17.515625 L 15.511719 17.234375 L 15.191406 17.308594 L 15.410156 17.058594 Z M 15.242188 16.777344 " fill-opacity="1" fill-rule="nonzero"/><path fill="#ffffff" d="M 9.976562 18.953125 L 10.234375 18.882812 L 10.246094 18.621094 L 10.390625 18.84375 L 10.644531 18.777344 L 10.476562 18.980469 L 10.621094 19.203125 L 10.375 19.105469 L 10.207031 19.308594 L 10.222656 19.046875 Z M 9.976562 18.953125 " fill-opacity="1" fill-rule="nonzero"/></svg>